# xmcd CD database file
#
# Track frame offsets:
#	150
#	2301
#	22032
#	38310
#	55505
#	76040
#	96295
#	110295
#	130968
#	147447
#	163953
#
# Disc length: 2467 seconds
#
# Revision: 0
# Processed by: cddbd v1.5.2PL0 Copyright (c) Steve Scherf et al.
# Submitted via: CDex 1.70beta2
#
DISCID=7b09a10b
DTITLE=東京ブラス・スタイル - アニジャズ　1st note
DYEAR=2005
DGENRE=Jazz
TTITLE0=～BRASS STYLE INTRO～
TTITLE1=鉄腕アトム
TTITLE2=キューティーハニー
TTITLE3=銀河鉄道999
TTITLE4=激！帝国華撃団
TTITLE5=ラムのラブソング
TTITLE6=ひょっこりひょうたん島
TTITLE7=ひみつのアッコちゃん
TTITLE8=エイトマン
TTITLE9=タッチ
TTITLE10=ルパン三世のテーマ'78
EXTD=YEAR: 2005
EXTT0=
EXTT1=
EXTT2=
EXTT3=
EXTT4=
EXTT5=
EXTT6=
EXTT7=
EXTT8=
EXTT9=
EXTT10=
PLAYORDER=
